<svg height="260pt" preserveAspectRatio="xMidYMid meet" viewBox="0 0 260 260" width="260pt" xmlns="http://www.w3.org/2000/svg"><g transform="matrix(.1 0 0 -.1 0 260)"><path d="m1176 2544c-6-22-10-25-37-19s-37-1-129-95c-83-85-99-106-94-125 4-18 0-27-20-40-18-12-26-26-26-47s-6-31-20-35c-11-3-20-8-20-12-4-51-4-375 0-380 3-4 13-10 23-14 15-6 17-22 17-146 0-137 0-139-25-155-23-15-25-23-25-86 0-69-1-71-41-110-49-47-47-70 6-70 40 0 48-22 15-40-16-9-20-21-20-66 0-47 3-57 19-61 31-8 33-31 5-50-24-15-26-21-20-64 6-44 4-50-19-65-18-12-25-25-25-49 0-21-7-38-19-46-17-12-20-29-23-123-3-103-2-109 20-124 27-18 29-49 2-57-15-5-20-15-20-40 0-24-7-37-25-49-19-12-24-23-20-36 4-14-2-27-19-44-17-15-26-34-26-54 0-22-6-32-20-37-17-5-20-15-20-60 0-47-3-57-25-71-17-11-25-25-25-45 0-24 4-29 25-29 19 0 26 7 31 28 4 15 12 34 19 42s16 38 20 65c4 28 16 58 26 68 11 10 19 28 19 41s6 29 14 35c8 7 17 27 20 46 12 60 46 54 46-8 0-15 7-30 15-33 10-4 15-20 15-50 0-27 6-48 15-56 9-7 21-19 28-26s27-27 46-45c18-18 46-44 62-59 31-30 35-31 155-28 50 1 84-3 88-9 11-18 191-14 206 4 7 8 19 15 26 15 9 0 14 11 14 32 0 26 12 43 65 94 52 50 65 69 65 93 0 28 3 31 30 31 18 0 33 7 39 19 6 10 22 22 36 25 14 4 25 13 25 21 0 9 11 20 24 25 19 7 25 17 28 47 3 38 3 38 47 38 45 0 51-5 71-55 5-14 14-32 19-40 26-43 50-101 45-113-2-7 7-24 21-37s25-34 25-48c0-13 10-32 21-41 17-13 22-29 23-67l1-49 53-3c42-2 52 0 52 13 0 8-11 20-25 25-24 9-26 14-24 62 2 43-1 54-19 66-14 9-22 25-22 43 0 19-8 34-25 45-18 12-23 22-19 39 5 22-17 55-37 55-5 0-9 15-9 33 0 25-8 38-34 59-19 16-40 28-47 28-8 0-10 12-6 36 6 34 3 40-51 90-31 29-60 54-64 54-17 0-7 38 11 43 13 3 21 15 23 38 2 26 9 34 35 43 17 6 57 33 87 61 53 47 56 52 56 97 0 40-4 50-25 64-18 12-25 25-25 48 0 20-7 35-20 44-11 7-20 21-20 33 0 11-11 30-25 43-35 33-36 108-2 131 24 15 24 16 19 171l-5 156 26 22 26 21 2 250c2 244 1 249-20 263-17 12-21 24-21 67 0 46-3 55-26 70-18 11-24 23-21 36 8 29-100 139-136 139-16 0-32 8-39 20-9 14-24 20-46 20-25 0-35 5-39 20-5 19-14 20-178 20h-173zm-191-223c3-5 1-12-5-16-5-3-10 1-10 9 0 18 6 21 15 7zm-65-163c0-19-18-43-25-36-9 9 4 48 16 48 5 0 9-6 9-12zm405-317c3-5 1-12-5-16-5-3-10 1-10 9 0 18 6 21 15 7zm149 1c8-13-5-52-15-46-12 7-12 54 0 54 6 0 12-4 15-8zm-229-33c13-13 29-19 48-17 25 3 32-2 46-32 19-41 56-53 66-21 3 12 15 25 25 31 14 8 19 5 22-14 4-18-6-34-39-66-24-23-55-43-68-46-13-2-36-9-50-14-32-12-64-5-121 27-60 33-90 77-78 112 6 15 18 27 31 29 12 2 27 10 33 18 18 21 64 17 85-7zm187-279c-3-30-3-64 1-105 1-23-3-30-18-33-26-6-35-20-30-52 17-110 17-108-15-125-23-12-30-22-30-45 0-24-4-30-21-30-28 0-59-18-59-34 0-14 41-36 68-36 9 0 26 12 37 26 16 20 26 25 43 20 31-10 28-45-7-84-35-38-35-38-68-12-20 16-41 20-99 20-83 0-88 4-91 72-1 35 3 51 18 64 11 10 19 30 19 50 0 24 5 34 20 39 13 4 20 15 20 33s14 39 50 72c28 25 50 54 50 63s-13 23-30 32c-53 27-30 55 46 55 44 0 54 3 59 21 10 29 41 20 37-11zm-217-15c0-43-29-40-33 3-3 28 0 33 15 30 13-2 18-12 18-33zm-23-76c30-30 30-30 11-49-12-10-23-38-26-65-4-26-16-58-27-72s-20-33-20-43c0-9-11-27-24-39-14-13-26-35-28-50-2-22-8-26-33-26-30 0-30 1-28 50 2 63 27 132 59 161 26 25 31 62 12 83-11 10-9 14 5 23 11 5 28 21 40 34 11 13 22 24 25 24 2 0 17-14 34-31zm318-58c0-6-4-13-10-16-5-3-10 1-10 9 0 9 5 16 10 16 6 0 10-4 10-9zm280-31c0-33-24-50-42-32-17 17-1 62 22 62 16 0 20-7 20-30zm-130-92c0-16-3-19-11-11-6 6-8 16-5 22 11 17 16 13 16-11zm114-134c12-31 5-59-23-92-32-37-68-36-56 2 4 11 8 33 9 48 5 50 55 80 70 42zm-249-69c0-16-5-30-12-32-14-5-28 40-18 57 12 19 30 4 30-25zm-177-162c-2-14-13-18-43-18s-41 4-43 18c-3 14 4 17 43 17s46-3 43-17zm-513-71c1-22 8-37 23-48 31-22 28-77-5-82-12-2-31 2-42 8-18 9-21 20-21 79 0 71 4 84 30 79 10-2 15-15 15-36zm489-8c23-9 20-42-5-49-15-5-28-1-42 14l-21 20 25 10c13 5 25 10 26 10 1 1 8-2 17-5zm-121-94c26 0 47-4 47-10s-28-10-64-10c-68 0-94 15-82 46 6 15 9 15 29-5 17-15 36-21 70-21zm311 24c13-5 16-22 16-76 0-57-5-78-26-114-29-50-46-55-70-19-9 14-22 25-30 25-7 0-17 12-20 26-5 20 0 32 24 57 17 18 34 46 38 62 4 17 9 33 11 38 5 9 35 9 57 1zm-724-70c9-23 14-25 44-20 21 4 43 1 62-9 16-8 35-15 42-15 6 0 12-4 12-10 0-5-12-10-27-10-30-1-63-21-63-38 0-6 10-17 23-23 12-7 28-20 35-31 8-10 25-18 43-18 41 0 79-44 103-120 11-33 17-63 13-66-11-11-56 50-57 77 0 33-21 52-52 47-22-3-23-7-23-97 0-84 2-94 20-102 38-15 69-59 71-100 2-28-2-39-12-39-8 0-14 8-14 19 0 10-17 37-38 60-29 32-45 41-70 41-24 0-35 6-42 22-6 13-14 30-19 38-24 44-40 89-43 125-3 38-1 41 40 60 23 11 42 24 42 30 0 21-23 34-50 29-21-5-31 1-53 29-15 20-27 45-27 56s-4 23-10 26c-14 8-13 38 2 53 19 19 38 14 48-14zm210-9c0-8-7-15-15-15-26 0-18 20 13 29 1 1 2-6 2-14zm340 5c0-5-4-10-10-10-5 0-10 5-10 10 0 6 5 10 10 10 6 0 10-4 10-10zm-32-63c3-30 11-42 45-66 23-16 60-46 82-67 38-37 42-39 105-38 36 0 75 4 88 8 34 12 29-21-9-60-29-30-32-31-57-18-33 17-63 18-114 2-38-11-41-10-58 13-15 19-21 22-31 12-21-21-87-16-99 7-6 11-17 20-25 20-20 0-20 49 0 56 8 4 22 1 30-6 8-6 19-9 25-5 15 9 12 35-5 41-12 5-55 67-55 80 0 2 7 4 15 4s15 8 15 18c0 21 20 44 35 39 5-2 11-20 13-40zm382-117c0-5-4-10-10-10-5 0-10 5-10 10 0 6 5 10 10 10 6 0 10-4 10-10zm-475-119c-8-46 5-54 66-45 34 6 44 3 67-19 15-14 38-27 52-29 23-3 25-6 21-52-4-58-19-85-80-141-32-30-53-40-80-42-20-1-47-3-61-5-23-3-25 1-30 44-7 56-12 63-37 50-27-14-42-4-49 35-6 31-2 39 31 73 23 24 35 44 32 54-3 8 5 31 19 51 13 20 24 42 24 50s7 15 16 15c13 0 15-7 9-39zm-355-181c0-5-4-10-10-10-5 0-10 5-10 10 0 6 5 10 10 10 6 0 10-4 10-10z"/><path d="m1247 174c-8-8 1-24 14-24 5 0 9 7 9 15 0 15-12 20-23 9z"/><path d="m1480 70c0-5 5-10 10-10 6 0 10 5 10 10 0 6-4 10-10 10-5 0-10-4-10-10z"/></g></svg>